<svg aria-hidden="true" style="position: absolute; width: 0; height: 0; overflow: hidden;" version="1.1" xmlns="http://www.w3.org/2000/svg" xmlns:xlink="http://www.w3.org/1999/xlink">
  <defs>
    <symbol id="user" viewBox="0 0 27 32">
      <path fill="none" stroke="#000" stroke-linejoin="round" stroke-linecap="round" stroke-miterlimit="4" stroke-width="1.3333" d="M13.333 13.037c3.273 0 5.926-2.653 5.926-5.926s-2.653-5.926-5.926-5.926c-3.273 0-5.926 2.653-5.926 5.926s2.653 5.926 5.926 5.926z"></path>
      <path fill="none" stroke="#000" stroke-linejoin="round" stroke-linecap="round" stroke-miterlimit="4" stroke-width="1.3333" d="M25.182 24.889c0.003-0.243 0.003-0.49 0.003-0.741 0-3.681-5.307-6.667-11.852-6.667s-11.852 2.985-11.852 6.667c0 3.681 0 6.667 11.852 6.667 3.305 0 5.689-0.233 7.407-0.647"></path>
    </symbol>
    <symbol id="email" viewBox="0 0 32 32">
      <path d="M26.667 5.333h-21.333c-1.467 0-2.653 1.2-2.653 2.667l-0.013 16c0 1.467 1.2 2.667 2.667 2.667h21.333c1.467 0 2.667-1.2 2.667-2.667v-16c0-1.467-1.2-2.667-2.667-2.667zM26.667 10.667l-10.667 6.667-10.667-6.667v-2.667l10.667 6.667 10.667-6.667v2.667z"></path>
    </symbol>
    <symbol id="serch" viewBox="0 0 32 32">
      <path d="M29.511 32l-11.2-11.2c-0.889 0.711-1.911 1.274-3.067 1.689s-2.385 0.622-3.689 0.622c-3.23 0-5.963-1.119-8.199-3.356s-3.355-4.971-3.356-8.199 1.118-5.961 3.356-8.199c2.239-2.238 4.972-3.356 8.199-3.356s5.961 1.119 8.201 3.356c2.24 2.238 3.358 4.971 3.355 8.199 0 1.304-0.207 2.533-0.622 3.689s-0.978 2.178-1.689 3.067l11.2 11.2-2.489 2.489zM11.556 19.556c2.222 0 4.111-0.777 5.668-2.332s2.334-3.444 2.332-5.668-0.779-4.112-2.332-5.666c-1.554-1.554-3.443-2.332-5.668-2.334s-4.113 0.776-5.666 2.334c-1.553 1.559-2.331 3.447-2.334 5.666s0.775 4.108 2.334 5.668c1.56 1.56 3.448 2.337 5.666 2.332z"></path>
    </symbol>
    <symbol id="icon" viewBox="0 0 27 32">
<path fill="#b3261e" style="fill: var(--color1, #b3261e)" d="M4.031 25.875l6.281-8.625-9.437-2.813 1.469-4.688 9.437 3.469-0.281-10.75h4.75l-0.313 10.938 9.313-3.469 1.438 4.781-9.594 2.844 6.156 8.469-3.875 2.906-5.781-9-5.656 8.781-3.906-2.844z"></path>
</symbol>
<symbol id="eye-close" viewBox="0 0 32 32">
<path d="M19.599 14.153l0.981-0.981c1.253 0.723 2.087 1.721 2.087 2.828 0 2.209-3.305 3.995-6.667 4-0.684 0-1.366-0.072-2.035-0.213l1.165-1.164c0.284 0.029 0.575 0.045 0.869 0.044h0.001c-0.277 0-0.543-0.042-0.794-0.12l1.321-1.321c0.313-0.135 0.565-0.386 0.7-0.699l1.32-1.321c0.124 0.398 0.153 0.82 0.085 1.231s-0.232 0.801-0.478 1.138c-0.246 0.337-0.568 0.611-0.939 0.801s-0.782 0.29-1.199 0.292c2.83-0.010 5.319-1.456 5.319-2.667 0-0.629-0.681-1.324-1.735-1.847zM13.397 16.583c-0.087-0.39-0.086-0.794 0.004-1.183s0.266-0.753 0.515-1.065c0.249-0.312 0.566-0.564 0.925-0.737s0.754-0.264 1.153-0.264c-2.812-0.010-5.329 1.452-5.329 2.667 0 0.597 0.603 1.251 1.551 1.763l-0.972 0.971c-1.157-0.715-1.913-1.677-1.913-2.733 0-2.209 3.323-4.011 6.667-4 0.609 0.002 1.218 0.063 1.806 0.175l-1.185 1.184c-0.193-0.015-0.389-0.023-0.587-0.025 0.188 0.003 0.371 0.025 0.549 0.064l-3.186 3.186zM22.061 9.805c0.125 0.125 0.195 0.295 0.195 0.471s-0.070 0.346-0.195 0.471l-11.313 11.313c-0.061 0.064-0.135 0.115-0.216 0.15s-0.169 0.053-0.257 0.054c-0.089 0.001-0.176-0.016-0.258-0.049s-0.156-0.083-0.219-0.145c-0.063-0.063-0.112-0.137-0.146-0.219s-0.051-0.17-0.050-0.258c0.001-0.088 0.019-0.176 0.054-0.257s0.086-0.155 0.149-0.217l11.313-11.313c0.062-0.062 0.135-0.111 0.216-0.145s0.168-0.051 0.255-0.051c0.088 0 0.174 0.017 0.255 0.051s0.154 0.082 0.216 0.144z"></path>
</symbol>



<symbol id="checkbox" viewBox="0 0 42 32">
<path fill="none" stroke="#3c0" style="stroke: var(--color1, #3c0)" stroke-linejoin="round" stroke-linecap="round" stroke-miterlimit="4" stroke-width="4.2667" d="M3.202 19.199l9.6 9.6 25.6-25.6"></path>
</symbol>
  </defs>
</svg>