<svg aria-hidden="true" style="position: absolute; width: 0; height: 0; overflow: hidden;" version="1.1" xmlns="http://www.w3.org/2000/svg" xmlns:xlink="http://www.w3.org/1999/xlink">
  <defs>
    <symbol id="user" viewBox="0 0 27 32">
      <path fill="none" stroke="#000" stroke-linejoin="round" stroke-linecap="round" stroke-miterlimit="4" stroke-width="1.3333" d="M13.333 13.037c3.273 0 5.926-2.653 5.926-5.926s-2.653-5.926-5.926-5.926c-3.273 0-5.926 2.653-5.926 5.926s2.653 5.926 5.926 5.926z"></path>
      <path fill="none" stroke="#000" stroke-linejoin="round" stroke-linecap="round" stroke-miterlimit="4" stroke-width="1.3333" d="M25.182 24.889c0.003-0.243 0.003-0.49 0.003-0.741 0-3.681-5.307-6.667-11.852-6.667s-11.852 2.985-11.852 6.667c0 3.681 0 6.667 11.852 6.667 3.305 0 5.689-0.233 7.407-0.647"></path>
    </symbol>

    <symbol id="email" viewBox="0 0 32 32">
      <path d="M26.667 5.333h-21.333c-1.467 0-2.653 1.2-2.653 2.667l-0.013 16c0 1.467 1.2 2.667 2.667 2.667h21.333c1.467 0 2.667-1.2 2.667-2.667v-16c0-1.467-1.2-2.667-2.667-2.667zM26.667 10.667l-10.667 6.667-10.667-6.667v-2.667l10.667 6.667 10.667-6.667v2.667z"></path>
    </symbol>

    <symbol id="serch" viewBox="0 0 32 32">
      <path d="M29.511 32l-11.2-11.2c-0.889 0.711-1.911 1.274-3.067 1.689s-2.385 0.622-3.689 0.622c-3.23 0-5.963-1.119-8.199-3.356s-3.355-4.971-3.356-8.199 1.118-5.961 3.356-8.199c2.239-2.238 4.972-3.356 8.199-3.356s5.961 1.119 8.201 3.356c2.24 2.238 3.358 4.971 3.355 8.199 0 1.304-0.207 2.533-0.622 3.689s-0.978 2.178-1.689 3.067l11.2 11.2-2.489 2.489zM11.556 19.556c2.222 0 4.111-0.777 5.668-2.332s2.334-3.444 2.332-5.668-0.779-4.112-2.332-5.666c-1.554-1.554-3.443-2.332-5.668-2.334s-4.113 0.776-5.666 2.334c-1.553 1.559-2.331 3.447-2.334 5.666s0.775 4.108 2.334 5.668c1.56 1.56 3.448 2.337 5.666 2.332z"></path>
    </symbol>


    <symbol id="icon" viewBox="0 0 27 32">
   <path fill="#b3261e" style="fill: var(--color1, #b3261e)" d="M4.031 25.875l6.281-8.625-9.437-2.813 1.469-4.688 9.437 3.469-0.281-10.75h4.75l-0.313 10.938 9.313-3.469 1.438 4.781-9.594 2.844 6.156 8.469-3.875 2.906-5.781-9-5.656 8.781-3.906-2.844z"></path>
   </symbol>

<symbol id="eye-close" viewBox="0 0 32 32">
<path d="M19.599 14.153l0.981-0.981c1.253 0.723 2.087 1.721 2.087 2.828 0 2.209-3.305 3.995-6.667 4-0.684 0-1.366-0.072-2.035-0.213l1.165-1.164c0.284 0.029 0.575 0.045 0.869 0.044h0.001c-0.277 0-0.543-0.042-0.794-0.12l1.321-1.321c0.313-0.135 0.565-0.386 0.7-0.699l1.32-1.321c0.124 0.398 0.153 0.82 0.085 1.231s-0.232 0.801-0.478 1.138c-0.246 0.337-0.568 0.611-0.939 0.801s-0.782 0.29-1.199 0.292c2.83-0.010 5.319-1.456 5.319-2.667 0-0.629-0.681-1.324-1.735-1.847zM13.397 16.583c-0.087-0.39-0.086-0.794 0.004-1.183s0.266-0.753 0.515-1.065c0.249-0.312 0.566-0.564 0.925-0.737s0.754-0.264 1.153-0.264c-2.812-0.010-5.329 1.452-5.329 2.667 0 0.597 0.603 1.251 1.551 1.763l-0.972 0.971c-1.157-0.715-1.913-1.677-1.913-2.733 0-2.209 3.323-4.011 6.667-4 0.609 0.002 1.218 0.063 1.806 0.175l-1.185 1.184c-0.193-0.015-0.389-0.023-0.587-0.025 0.188 0.003 0.371 0.025 0.549 0.064l-3.186 3.186zM22.061 9.805c0.125 0.125 0.195 0.295 0.195 0.471s-0.070 0.346-0.195 0.471l-11.313 11.313c-0.061 0.064-0.135 0.115-0.216 0.15s-0.169 0.053-0.257 0.054c-0.089 0.001-0.176-0.016-0.258-0.049s-0.156-0.083-0.219-0.145c-0.063-0.063-0.112-0.137-0.146-0.219s-0.051-0.17-0.050-0.258c0.001-0.088 0.019-0.176 0.054-0.257s0.086-0.155 0.149-0.217l11.313-11.313c0.062-0.062 0.135-0.111 0.216-0.145s0.168-0.051 0.255-0.051c0.088 0 0.174 0.017 0.255 0.051s0.154 0.082 0.216 0.144z"></path>
</symbol>

<symbol id="eye" viewBox="0 0 32 32">
<path d="M22.4 16c0-1.448-3.008-3.188-6.406-3.2-3.374-0.012-6.394 1.742-6.394 3.2 0 1.46 3.003 3.205 6.398 3.2 3.404-0.005 6.402-1.744 6.402-3.2zM16 20.8c-4.034 0.006-8-2.149-8-4.8s3.987-4.814 8-4.8c4.013 0.014 8 2.149 8 4.8s-3.966 4.794-8 4.8zM16 19.2c-0.849 0-1.663-0.337-2.263-0.937s-0.937-1.414-0.937-2.263c0-0.849 0.337-1.663 0.937-2.263s1.414-0.937 2.263-0.937 1.663 0.337 2.263 0.937c0.6 0.6 0.937 1.414 0.937 2.263s-0.337 1.663-0.937 2.263c-0.6 0.6-1.414 0.937-2.263 0.937zM16 17.6c0.424 0 0.831-0.169 1.131-0.469s0.469-0.707 0.469-1.131c0-0.424-0.169-0.831-0.469-1.131s-0.707-0.469-1.131-0.469-0.831 0.169-1.131 0.469c-0.3 0.3-0.469 0.707-0.469 1.131s0.169 0.831 0.469 1.131 0.707 0.469 1.131 0.469z"></path>
</symbol>


<symbol id="checkbox" viewBox="0 0 42 32">
<path fill="none" stroke="#3c0" style="stroke: var(--color1, #3c0)" stroke-linejoin="round" stroke-linecap="round" stroke-miterlimit="4" stroke-width="4.2667" d="M3.202 19.199l9.6 9.6 25.6-25.6"></path>
</symbol>


<symbol id="google" viewBox="0 0 32 32">
<path fill="#ffc107" style="fill: var(--color1, #ffc107)" d="M29.074 13.389h-1.074v-0.055h-12v5.333h7.535c-1.099 3.105-4.053 5.333-7.535 5.333-4.418 0-8-3.582-8-8s3.582-8 8-8c2.039 0 3.895 0.769 5.307 2.026l3.771-3.771c-2.381-2.219-5.567-3.588-9.079-3.588-7.363 0-13.333 5.97-13.333 13.333s5.97 13.333 13.333 13.333c7.363 0 13.333-5.97 13.333-13.333 0-0.894-0.092-1.767-0.259-2.611z"></path>
<path fill="#000" style="fill: var(--color2, #000)" opacity="0.3" d="M29.074 13.389h-1.074v-0.055h-12v5.333h7.535c-1.099 3.105-4.053 5.333-7.535 5.333-4.418 0-8-3.582-8-8s3.582-8 8-8c2.039 0 3.895 0.769 5.307 2.026l3.771-3.771c-2.381-2.219-5.567-3.588-9.079-3.588-7.363 0-13.333 5.97-13.333 13.333s5.97 13.333 13.333 13.333c7.363 0 13.333-5.97 13.333-13.333 0-0.894-0.092-1.767-0.259-2.611z"></path>
<path fill="#fff" style="fill: var(--color3, #fff)" opacity="0.3" d="M29.074 13.389h-1.074v-0.055h-12v5.333h7.535c-1.099 3.105-4.053 5.333-7.535 5.333-4.418 0-8-3.582-8-8s3.582-8 8-8c2.039 0 3.895 0.769 5.307 2.026l3.771-3.771c-2.381-2.219-5.567-3.588-9.079-3.588-7.363 0-13.333 5.97-13.333 13.333s5.97 13.333 13.333 13.333c7.363 0 13.333-5.97 13.333-13.333 0-0.894-0.092-1.767-0.259-2.611z"></path>
<path fill="#ff3d00" style="fill: var(--color4, #ff3d00)" d="M4.204 9.794l4.381 3.213c1.185-2.935 4.056-5.007 7.415-5.007 2.039 0 3.895 0.769 5.307 2.026l3.771-3.771c-2.381-2.219-5.567-3.588-9.079-3.588-5.121 0-9.563 2.891-11.796 7.127z"></path>
<path fill="#000" style="fill: var(--color2, #000)" opacity="0.3" d="M4.204 9.794l4.381 3.213c1.185-2.935 4.056-5.007 7.415-5.007 2.039 0 3.895 0.769 5.307 2.026l3.771-3.771c-2.381-2.219-5.567-3.588-9.079-3.588-5.121 0-9.563 2.891-11.796 7.127z"></path>
<path fill="#fff" style="fill: var(--color3, #fff)" opacity="0.3" d="M4.204 9.794l4.381 3.213c1.185-2.935 4.056-5.007 7.415-5.007 2.039 0 3.895 0.769 5.307 2.026l3.771-3.771c-2.381-2.219-5.567-3.588-9.079-3.588-5.121 0-9.563 2.891-11.796 7.127z"></path>
<path fill="#4caf50" style="fill: var(--color5, #4caf50)" d="M16 29.333c3.444 0 6.573-1.318 8.939-3.461l-4.127-3.492c-1.384 1.052-3.074 1.621-4.813 1.62-3.468 0-6.413-2.211-7.522-5.297l-4.348 3.35c2.207 4.318 6.688 7.281 11.87 7.281z"></path>
<path fill="#000" style="fill: var(--color2, #000)" opacity="0.3" d="M16 29.333c3.444 0 6.573-1.318 8.939-3.461l-4.127-3.492c-1.384 1.052-3.074 1.621-4.813 1.62-3.468 0-6.413-2.211-7.522-5.297l-4.348 3.35c2.207 4.318 6.688 7.281 11.87 7.281z"></path>
<path fill="#fff" style="fill: var(--color3, #fff)" opacity="0.3" d="M16 29.333c3.444 0 6.573-1.318 8.939-3.461l-4.127-3.492c-1.384 1.052-3.074 1.621-4.813 1.62-3.468 0-6.413-2.211-7.522-5.297l-4.348 3.35c2.207 4.318 6.688 7.281 11.87 7.281z"></path>
<path fill="#1976d2" style="fill: var(--color6, #1976d2)" d="M29.074 13.389h-1.074v-0.055h-12v5.333h7.535c-0.526 1.478-1.473 2.769-2.725 3.714l0.002-0.001 4.127 3.492c-0.292 0.265 4.394-3.205 4.394-9.871 0-0.894-0.092-1.767-0.259-2.611z"></path>
<path fill="#000" style="fill: var(--color2, #000)" opacity="0.3" d="M29.074 13.389h-1.074v-0.055h-12v5.333h7.535c-0.526 1.478-1.473 2.769-2.725 3.714l0.002-0.001 4.127 3.492c-0.292 0.265 4.394-3.205 4.394-9.871 0-0.894-0.092-1.767-0.259-2.611z"></path>
<path fill="#fff" style="fill: var(--color3, #fff)" opacity="0.3" d="M29.074 13.389h-1.074v-0.055h-12v5.333h7.535c-0.526 1.478-1.473 2.769-2.725 3.714l0.002-0.001 4.127 3.492c-0.292 0.265 4.394-3.205 4.394-9.871 0-0.894-0.092-1.767-0.259-2.611z"></path>
</symbol>


<symbol id="linkedin" viewBox="0 0 32 32">
<path fill="#fff" style="fill: var(--color3, #fff)" d="M24.5 0h-17c-4.142 0-7.5 3.358-7.5 7.5v17c0 4.142 3.358 7.5 7.5 7.5h17c4.142 0 7.5-3.358 7.5-7.5v-17c0-4.142-3.358-7.5-7.5-7.5z"></path>
<path fill="#0a66c2" style="fill: var(--color7, #0a66c2)" d="M24.5 0h-17c-4.142 0-7.5 3.358-7.5 7.5v17c0 4.142 3.358 7.5 7.5 7.5h17c4.142 0 7.5-3.358 7.5-7.5v-17c0-4.142-3.358-7.5-7.5-7.5z"></path>
<path fill="#000" style="fill: var(--color2, #000)" opacity="0.3" d="M24.5 0h-17c-4.142 0-7.5 3.358-7.5 7.5v17c0 4.142 3.358 7.5 7.5 7.5h17c4.142 0 7.5-3.358 7.5-7.5v-17c0-4.142-3.358-7.5-7.5-7.5z"></path>
<path fill="#fff" style="fill: var(--color3, #fff)" opacity="0.3" d="M24.5 0h-17c-4.142 0-7.5 3.358-7.5 7.5v17c0 4.142 3.358 7.5 7.5 7.5h17c4.142 0 7.5-3.358 7.5-7.5v-17c0-4.142-3.358-7.5-7.5-7.5z"></path>
<path fill="#fff" style="fill: var(--color3, #fff)" d="M23.089 27.211h3.659c0.133 0 0.26-0.053 0.354-0.146s0.146-0.221 0.146-0.353l0.002-7.73c0-4.040-0.871-7.146-5.592-7.146-1.795-0.067-3.488 0.858-4.401 2.404-0.004 0.008-0.011 0.013-0.019 0.017s-0.017 0.004-0.025 0.002c-0.008-0.002-0.016-0.007-0.021-0.014s-0.008-0.015-0.008-0.024v-1.51c0-0.133-0.053-0.26-0.146-0.354s-0.221-0.146-0.354-0.146h-3.472c-0.133 0-0.26 0.053-0.354 0.146s-0.146 0.221-0.146 0.354v14.003c0 0.133 0.053 0.26 0.146 0.354s0.221 0.146 0.354 0.146h3.659c0.133 0 0.26-0.053 0.354-0.146s0.146-0.221 0.146-0.354v-6.922c0-1.957 0.371-3.852 2.798-3.852 2.392 0 2.423 2.239 2.423 3.979v6.796c0 0.133 0.053 0.26 0.146 0.354s0.221 0.146 0.354 0.146zM4.75 7.454c0 1.483 1.221 2.703 2.704 2.703s2.703-1.221 2.703-2.704c-0-1.483-1.22-2.703-2.703-2.703s-2.704 1.22-2.704 2.704zM5.62 27.211h3.663c0.133 0 0.26-0.053 0.354-0.146s0.146-0.221 0.146-0.354v-14.003c0-0.133-0.053-0.26-0.146-0.354s-0.221-0.146-0.354-0.146h-3.663c-0.133 0-0.26 0.053-0.354 0.146s-0.146 0.221-0.146 0.354v14.003c0 0.133 0.053 0.26 0.146 0.354s0.221 0.146 0.354 0.146z"></path>
</symbol>

  </defs>
</svg>