<svg aria-hidden="true" style="position: absolute; width: 0; height: 0; overflow: hidden;" version="1.1" xmlns="http://www.w3.org/2000/svg" xmlns:xlink="http://www.w3.org/1999/xlink">
  <defs>
    <symbol id="user" viewBox="0 0 27 32">
      <path fill="none" stroke="#000" stroke-linejoin="round" stroke-linecap="round" stroke-miterlimit="4" stroke-width="1.3333" d="M13.333 13.037c3.273 0 5.926-2.653 5.926-5.926s-2.653-5.926-5.926-5.926c-3.273 0-5.926 2.653-5.926 5.926s2.653 5.926 5.926 5.926z"></path>
      <path fill="none" stroke="#000" stroke-linejoin="round" stroke-linecap="round" stroke-miterlimit="4" stroke-width="1.3333" d="M25.182 24.889c0.003-0.243 0.003-0.49 0.003-0.741 0-3.681-5.307-6.667-11.852-6.667s-11.852 2.985-11.852 6.667c0 3.681 0 6.667 11.852 6.667 3.305 0 5.689-0.233 7.407-0.647"></path>
    </symbol>
    <symbol id="email" viewBox="0 0 32 32">
      <path d="M26.667 5.333h-21.333c-1.467 0-2.653 1.2-2.653 2.667l-0.013 16c0 1.467 1.2 2.667 2.667 2.667h21.333c1.467 0 2.667-1.2 2.667-2.667v-16c0-1.467-1.2-2.667-2.667-2.667zM26.667 10.667l-10.667 6.667-10.667-6.667v-2.667l10.667 6.667 10.667-6.667v2.667z"></path>
    </symbol>
    <symbol id="serch" viewBox="0 0 32 32">
      <path d="M29.511 32l-11.2-11.2c-0.889 0.711-1.911 1.274-3.067 1.689s-2.385 0.622-3.689 0.622c-3.23 0-5.963-1.119-8.199-3.356s-3.355-4.971-3.356-8.199 1.118-5.961 3.356-8.199c2.239-2.238 4.972-3.356 8.199-3.356s5.961 1.119 8.201 3.356c2.24 2.238 3.358 4.971 3.355 8.199 0 1.304-0.207 2.533-0.622 3.689s-0.978 2.178-1.689 3.067l11.2 11.2-2.489 2.489zM11.556 19.556c2.222 0 4.111-0.777 5.668-2.332s2.334-3.444 2.332-5.668-0.779-4.112-2.332-5.666c-1.554-1.554-3.443-2.332-5.668-2.334s-4.113 0.776-5.666 2.334c-1.553 1.559-2.331 3.447-2.334 5.666s0.775 4.108 2.334 5.668c1.56 1.56 3.448 2.337 5.666 2.332z"></path>
    </symbol>
  </defs>
</svg>