<svg aria-hidden="true" style="position: absolute; width: 0; height: 0; overflow: hidden;" version="1.1" xmlns="http://www.w3.org/2000/svg" xmlns:xlink="http://www.w3.org/1999/xlink">
  <defs>

<symbol id="LOGO" viewBox="0 0 57 32">
<path fill="none" stroke="#228b22" style="stroke: var(--color1, #228b22)" stroke-linejoin="miter" stroke-linecap="round" stroke-miterlimit="4" stroke-width="0.5818" d="M14.816 14.527c-8.58 2.263-9.715-2.854-10.097-4.722-2.323 5.932-2.124 8.59 5.533 10.167"></path>
<path fill="#228b22" style="fill: var(--color1, #228b22); stroke: var(--color1, #228b22)" opacity="0.266667" stroke="#228b22" stroke-linejoin="miter" stroke-linecap="butt" stroke-miterlimit="4" stroke-width="0.5818" d="M8.837 21.155c0 0.33-0.302 0.642-0.732 0.642s-0.732-0.312-0.732-0.642c0-0.33 0.302-0.642 0.732-0.642s0.732 0.312 0.732 0.642z"></path>
<path fill="#f8c23d" style="fill: var(--color2, #f8c23d)" d="M17.966 27.452c-5.256 4.955-11.036 4.583-14.539 1.762-1.882-1.516-3.114-3.741-3.266-6.248-0.148-2.432 0.719-5.14 3.016-7.732 0.083 0.596 0.198 1.065 0.393 1.476 0.212 0.448 0.516 0.817 0.958 1.206-0.56 0.716-1.407 2.263-1.393 3.885l-1.859 0.876 1.885 0.819c0.582 2.032 1.743 3.392 3.193 4.246 1.463 0.861 3.212 1.203 4.946 1.216s3.462-0.304 4.889-0.771c0.663-0.217 1.266-0.467 1.777-0.735z"></path>
<path fill="#074906" style="fill: var(--color3, #074906); stroke: var(--color3, #074906)" stroke="#074906" stroke-linejoin="miter" stroke-linecap="round" stroke-miterlimit="4" stroke-width="1.7455" d="M16.551 3.5v-0.873h-10.141v-1.754h12.529v12.504c0 0.921-0.076 1.972-0.335 2.803-0.153 0.49-0.337 0.812-0.54 1.011-0.328-0.515-0.643-0.963-0.948-1.396l-0.006-0.008c-0.33-0.469-0.648-0.922-0.975-1.443 0.29-0.475 0.385-0.994 0.415-1.48 0.020-0.316 0.013-0.685 0.007-1.037-0.003-0.164-0.006-0.325-0.006-0.474v-7.853z"></path>
<path fill="#074906" style="fill: var(--color3, #074906); stroke: var(--color3, #074906)" stroke="#074906" stroke-linejoin="miter" stroke-linecap="round" stroke-miterlimit="4" stroke-width="1.7455" d="M16.494 3.528v-0.873h-10.141v-1.754h12.529v12.504c0 0.921-0.076 1.972-0.335 2.803-0.153 0.49-0.337 0.812-0.54 1.011-0.328-0.515-0.643-0.963-0.948-1.396l-0.006-0.008c-0.33-0.469-0.648-0.922-0.975-1.443 0.29-0.475 0.384-0.994 0.415-1.48 0.020-0.316 0.013-0.685 0.007-1.037-0.003-0.164-0.006-0.325-0.006-0.475v-7.853z"></path>
<path fill="#074906" style="fill: var(--color3, #074906); stroke: var(--color3, #074906)" stroke="#074906" stroke-linejoin="miter" stroke-linecap="round" stroke-miterlimit="4" stroke-width="1.7455" d="M16.437 3.557v-0.873h-10.141v-1.754h12.529v12.504c0 0.921-0.076 1.972-0.335 2.803-0.153 0.49-0.337 0.812-0.54 1.011-0.328-0.515-0.643-0.963-0.948-1.396l-0.006-0.008c-0.33-0.469-0.648-0.922-0.975-1.443 0.29-0.475 0.384-0.994 0.415-1.48 0.020-0.316 0.013-0.685 0.007-1.037-0.003-0.164-0.006-0.325-0.006-0.474v-7.853z"></path>
<path fill="#074906" style="fill: var(--color3, #074906); stroke: var(--color3, #074906)" stroke="#074906" stroke-linejoin="miter" stroke-linecap="round" stroke-miterlimit="4" stroke-width="1.7455" d="M16.379 3.585v-0.873h-10.141v-1.754h12.529v12.504c0 0.921-0.076 1.972-0.335 2.803-0.153 0.49-0.337 0.812-0.54 1.011-0.328-0.515-0.643-0.963-0.948-1.396l-0.006-0.008c-0.33-0.469-0.648-0.922-0.975-1.443 0.29-0.475 0.384-0.994 0.415-1.48 0.020-0.316 0.013-0.685 0.007-1.037-0.003-0.164-0.006-0.325-0.006-0.474v-7.853z"></path>
<path fill="#074906" style="fill: var(--color3, #074906); stroke: var(--color3, #074906)" stroke="#074906" stroke-linejoin="miter" stroke-linecap="round" stroke-miterlimit="4" stroke-width="1.7455" d="M16.322 3.614v-0.873h-10.141v-1.754h12.529v12.504c0 0.921-0.076 1.972-0.335 2.803-0.153 0.49-0.337 0.812-0.54 1.011-0.328-0.515-0.643-0.963-0.948-1.396l-0.006-0.008c-0.33-0.469-0.648-0.922-0.975-1.443 0.29-0.475 0.384-0.994 0.415-1.48 0.020-0.316 0.013-0.685 0.007-1.037-0.003-0.164-0.006-0.325-0.006-0.475v-7.853z"></path>
<path fill="#228b22" style="fill: var(--color1, #228b22); stroke: var(--color1, #228b22)" stroke="#228b22" stroke-linejoin="miter" stroke-linecap="round" stroke-miterlimit="4" stroke-width="1.7455" d="M16.264 3.643v-0.873h-10.141v-1.754h12.529v12.504c0 0.921-0.076 1.972-0.335 2.803-0.153 0.49-0.337 0.812-0.54 1.011-0.328-0.515-0.643-0.963-0.948-1.396l-0.006-0.008c-0.33-0.469-0.648-0.922-0.975-1.443 0.29-0.475 0.384-0.994 0.415-1.48 0.020-0.316 0.013-0.685 0.007-1.037-0.003-0.164-0.006-0.325-0.006-0.474v-7.853z"></path>
<path fill="#f8c23d" style="fill: var(--color2, #f8c23d)" d="M12.78 15.167l-0.031-0.006-0.031 0.007c-1.554 0.363-3.087 0.044-4.308-0.543-1.227-0.59-2.11-1.437-2.388-2.099-0.044-0.105-0.024-0.226 0.111-0.372 0.137-0.149 0.377-0.302 0.706-0.442 0.656-0.278 1.623-0.485 2.7-0.529 2.162-0.089 4.696 0.48 6.032 2.352 0.014 0.020 0.026 0.040 0.036 0.062 0.106 0.229 0.61 1.318 1.127 2.561 0.366 0.88 0.735 1.829 0.975 2.603-0.619-0.923-1.186-1.641-1.835-2.195-0.821-0.7-1.766-1.131-3.095-1.399z"></path>
<path fill="none" stroke="#228b22" style="stroke: var(--color1, #228b22)" stroke-linejoin="miter" stroke-linecap="round" stroke-miterlimit="4" stroke-width="0.8727" d="M19.030 21.115c0.99-0.766 1.487-1.342 2.162-2.892 0.952 2.867 0.682 4.397-1.431 6.969"></path>
<path fill="#074906" style="fill: var(--color3, #074906); stroke: var(--color3, #074906)" stroke="#074906" stroke-linejoin="miter" stroke-linecap="butt" stroke-miterlimit="4" stroke-width="0.4364" d="M23.738 6.065h-0.218v5.461c0 1.398 0.364 2.66 1.141 3.575 0.782 0.921 1.962 1.466 3.536 1.466s2.754-0.545 3.536-1.466c0.778-0.916 1.141-2.177 1.141-3.575v-5.461h-2.193v5.461c0 0.958-0.214 1.667-0.615 2.135-0.396 0.462-1.003 0.722-1.87 0.722-0.794 0-1.406-0.261-1.821-0.73-0.419-0.473-0.663-1.184-0.663-2.127v-5.461h-1.975zM33.922 16.070v0.218h2.193v-6.251l5.152 6.251h1.74v-10.223h-2.193v6.251l-5.152-6.251h-1.74v10.005zM23.655 31.049v0.218h2.193v-5.313h4.564v5.313h2.193v-10.223h-2.193v2.796h-4.564v-2.796h-2.193v10.005zM33.79 31.049v0.218h2.193v-10.223h-2.193v10.005zM37.168 31.049v0.218h2.193v-3.165l2.65-0.248 2.006 3.413h2.532l-2.236-3.823c1.308-0.533 2.074-1.646 2.074-2.966v-3.434h-9.22v10.005zM47.435 31.049v0.218h2.193v-3.165l3.585-0.331c0 0 0 0 0 0 2.117-0.19 3.442-1.551 3.442-3.293v-3.434h-9.22v10.005zM42.838 25.659l-3.477 0.327v-2.828h4.834v1.25c0 0.459-0.173 0.744-0.413 0.928-0.25 0.192-0.593 0.29-0.943 0.323zM53.105 25.659l-3.477 0.327v-2.828h4.834v1.25c0 0.459-0.173 0.744-0.413 0.928-0.25 0.192-0.593 0.29-0.943 0.323z"></path>
<path fill="#074906" style="fill: var(--color3, #074906); stroke: var(--color3, #074906)" stroke="#074906" stroke-linejoin="miter" stroke-linecap="butt" stroke-miterlimit="4" stroke-width="0.4364" d="M23.681 6.094h-0.218v5.461c0 1.398 0.364 2.66 1.141 3.575 0.782 0.921 1.962 1.466 3.536 1.466s2.754-0.545 3.536-1.466c0.778-0.916 1.141-2.177 1.141-3.575v-5.461h-2.193v5.461c0 0.958-0.214 1.667-0.615 2.135-0.396 0.462-1.003 0.722-1.87 0.722-0.794 0-1.406-0.261-1.821-0.73-0.419-0.473-0.663-1.184-0.663-2.127v-5.461h-1.975zM33.864 16.098v0.218h2.193v-6.251l5.152 6.251h1.74v-10.223h-2.193v6.251l-5.152-6.251h-1.74v10.005zM23.598 31.078v0.218h2.193v-5.313h4.564v5.313h2.193v-10.223h-2.193v2.796h-4.564v-2.796h-2.193v10.005zM33.732 31.078v0.218h2.193v-10.223h-2.193v10.005zM37.111 31.078v0.218h2.193v-3.165l2.65-0.248 2.006 3.413h2.532l-2.236-3.823c1.308-0.533 2.074-1.646 2.074-2.966v-3.434h-9.22v10.005zM47.378 31.078v0.218h2.193v-3.165l3.585-0.331c0 0 0 0 0 0 2.117-0.19 3.442-1.551 3.442-3.293v-3.434h-9.22v10.005zM42.781 25.688l-3.478 0.327v-2.828h4.834v1.25c0 0.459-0.173 0.744-0.413 0.928-0.25 0.192-0.593 0.29-0.943 0.323zM53.048 25.688l-3.478 0.327v-2.828h4.834v1.25c0 0.459-0.173 0.744-0.413 0.928-0.25 0.192-0.593 0.29-0.943 0.323z"></path>
<path fill="#074906" style="fill: var(--color3, #074906); stroke: var(--color3, #074906)" stroke="#074906" stroke-linejoin="miter" stroke-linecap="butt" stroke-miterlimit="4" stroke-width="0.4364" d="M23.623 6.122h-0.218v5.461c0 1.398 0.364 2.66 1.141 3.575 0.782 0.921 1.962 1.466 3.536 1.466s2.754-0.545 3.536-1.466c0.778-0.916 1.141-2.177 1.141-3.575v-5.461h-2.193v5.461c0 0.958-0.214 1.667-0.615 2.135-0.396 0.462-1.003 0.722-1.87 0.722-0.794 0-1.406-0.261-1.821-0.73-0.419-0.473-0.663-1.184-0.663-2.127v-5.461h-1.975zM33.807 16.127v0.218h2.193v-6.251l5.152 6.251h1.74v-10.223h-2.193v6.251l-5.152-6.251h-1.74v10.005zM23.54 31.106v0.218h2.193v-5.313h4.564v5.313h2.193v-10.223h-2.193v2.796h-4.564v-2.796h-2.193v10.005zM33.675 31.106v0.218h2.193v-10.223h-2.193v10.005zM37.053 31.106v0.218h2.193v-3.165l2.65-0.248 2.006 3.413h2.532l-2.236-3.823c1.308-0.533 2.074-1.646 2.074-2.966v-3.434h-9.22v10.005zM47.32 31.106v0.218h2.193v-3.165l3.585-0.331c0 0 0 0 0 0 2.117-0.19 3.442-1.551 3.442-3.293v-3.434h-9.22v10.005zM42.724 25.716l-3.478 0.327v-2.828h4.834v1.25c0 0.459-0.173 0.744-0.413 0.928-0.25 0.192-0.593 0.29-0.943 0.323zM52.991 25.716l-3.477 0.327v-2.828h4.834v1.25c0 0.459-0.173 0.744-0.413 0.928-0.25 0.192-0.593 0.29-0.943 0.323z"></path>
<path fill="#074906" style="fill: var(--color3, #074906); stroke: var(--color3, #074906)" stroke="#074906" stroke-linejoin="miter" stroke-linecap="butt" stroke-miterlimit="4" stroke-width="0.4364" d="M23.566 6.151h-0.218v5.461c0 1.398 0.364 2.66 1.141 3.575 0.782 0.921 1.962 1.466 3.536 1.466s2.754-0.545 3.536-1.466c0.778-0.916 1.141-2.177 1.141-3.575v-5.461h-2.193v5.461c0 0.958-0.214 1.667-0.615 2.135-0.396 0.462-1.003 0.722-1.87 0.722-0.794 0-1.406-0.261-1.821-0.73-0.419-0.473-0.663-1.184-0.663-2.127v-5.461h-1.975zM33.75 16.156v0.218h2.193v-6.251l5.152 6.251h1.74v-10.223h-2.193v6.251l-5.152-6.251h-1.74v10.005zM23.483 31.135v0.218h2.193v-5.313h4.564v5.313h2.193v-10.223h-2.193v2.796h-4.564v-2.796h-2.193v10.005zM33.618 31.135v0.218h2.193v-10.223h-2.193v10.005zM36.996 31.135v0.218h2.193v-3.165l2.65-0.248 2.006 3.413h2.532l-2.236-3.823c1.308-0.533 2.074-1.646 2.074-2.966v-3.434h-9.22v10.005zM47.263 31.135v0.218h2.193v-3.165l3.585-0.331c0 0 0 0 0 0 2.117-0.19 3.442-1.551 3.442-3.293v-3.434h-9.22v10.005zM42.667 25.745l-3.477 0.327v-2.828h4.834v1.25c0 0.459-0.173 0.744-0.413 0.928-0.25 0.192-0.593 0.29-0.943 0.323zM52.934 25.745l-3.478 0.327v-2.828h4.834v1.25c0 0.459-0.173 0.744-0.413 0.928-0.25 0.192-0.593 0.29-0.943 0.323z"></path>
<path fill="#074906" style="fill: var(--color3, #074906); stroke: var(--color3, #074906)" stroke="#074906" stroke-linejoin="miter" stroke-linecap="butt" stroke-miterlimit="4" stroke-width="0.4364" d="M23.509 6.179h-0.218v5.448c0 1.395 0.364 2.654 1.142 3.567 0.782 0.919 1.962 1.463 3.536 1.463s2.754-0.544 3.536-1.463c0.778-0.913 1.142-2.172 1.142-3.567v-5.448h-2.193v5.448c0 0.955-0.214 1.663-0.615 2.129-0.396 0.461-1.003 0.721-1.87 0.721-0.794 0-1.406-0.261-1.822-0.729-0.419-0.472-0.663-1.181-0.663-2.121v-5.448h-1.975zM33.693 16.16v0.218h2.193v-6.236l5.152 6.236h1.74v-10.199h-2.193v6.236l-5.152-6.236h-1.74v9.981zM23.426 31.103v0.218h2.193v-5.3h4.564v5.3h2.193v-10.199h-2.193v2.789h-4.564v-2.789h-2.193v9.981zM33.561 31.103v0.218h2.193v-10.199h-2.193v9.981zM36.939 31.103v0.218h2.193v-3.157l2.651-0.248 2.006 3.405h2.533l-2.237-3.814c1.307-0.532 2.074-1.642 2.074-2.959v-3.426h-9.22v9.981zM47.206 31.103v0.218h2.193v-3.157l3.585-0.33c0 0 0 0 0 0 2.116-0.189 3.442-1.547 3.442-3.286v-3.426h-9.22v9.981zM42.61 25.725l-3.478 0.326v-2.82h4.834v1.246c0 0.457-0.173 0.741-0.413 0.925-0.25 0.192-0.593 0.289-0.943 0.322zM52.877 25.725l-3.478 0.326v-2.82h4.834v1.246c0 0.457-0.173 0.741-0.413 0.925-0.25 0.192-0.593 0.289-0.943 0.322z"></path>
<path fill="#228b22" style="fill: var(--color1, #228b22); stroke: var(--color1, #228b22)" stroke="#228b22" stroke-linejoin="miter" stroke-linecap="butt" stroke-miterlimit="4" stroke-width="0.4364" d="M23.452 6.208h-0.218v5.461c0 1.398 0.364 2.66 1.141 3.575 0.782 0.921 1.962 1.466 3.536 1.466s2.754-0.545 3.536-1.466c0.778-0.916 1.141-2.177 1.141-3.575v-5.461h-2.193v5.461c0 0.958-0.214 1.667-0.615 2.135-0.396 0.462-1.003 0.722-1.87 0.722-0.794 0-1.406-0.261-1.821-0.73-0.419-0.473-0.663-1.184-0.663-2.127v-5.461h-1.975zM33.635 16.213v0.218h2.193v-6.251l5.152 6.251h1.74v-10.223h-2.193v6.251l-5.152-6.251h-1.74v10.005zM33.503 31.192v0.218h2.193v-10.223h-2.193v10.005zM36.882 31.192v0.218h2.193v-3.165l2.65-0.248 2.006 3.413h2.532l-2.236-3.823c1.308-0.534 2.074-1.646 2.074-2.966v-3.434h-9.22v10.005zM47.149 31.192v0.218h2.193v-3.165l3.585-0.331c0 0 0-0 0-0 2.117-0.19 3.442-1.551 3.442-3.293v-3.434h-9.22v10.005zM42.552 25.802l-3.477 0.327v-2.828h4.834v1.25c0 0.459-0.173 0.744-0.413 0.928-0.25 0.192-0.593 0.29-0.943 0.323zM52.819 25.802l-3.477 0.327v-2.828h4.834v1.25c0 0.459-0.173 0.744-0.413 0.928-0.25 0.192-0.593 0.29-0.943 0.323z"></path>
<path fill="#228b22" style="fill: var(--color1, #228b22); stroke: var(--color1, #228b22)" stroke="#228b22" stroke-linejoin="miter" stroke-linecap="butt" stroke-miterlimit="4" stroke-width="0.4364" d="M23.369 31.192v0.218h2.193v-5.313h4.564v5.313h2.193v-10.223h-2.193v2.796h-4.564v-2.796h-2.193v10.005z"></path>
</symbol>


<symbol id="future-of-it" viewBox="0 0 276 32">
<path fill="#228b22" style="fill: var(--color1, #228b22)" d="M0 31.342v-30.714h25.516v5.265h-19.797v6.143h14.738v5.265h-14.738v14.041h-5.719z"></path>
<path fill="#228b22" style="fill: var(--color1, #228b22)" d="M39.37 32c-7.424 0-10.888-4.936-10.888-11.353v-12.341h4.289v12.341c0 4.607 2.475 7.24 6.599 7.24 4.454 0 6.599-2.6 6.599-7.24v-12.341h4.289v12.341c0 6.417-3.464 11.353-10.888 11.353z"></path>
<path fill="#228b22" style="fill: var(--color1, #228b22)" d="M60.809 31.342v-19.087h-8.249v-3.949h20.787v3.949h-8.248v19.087h-4.29z"></path>
<path fill="#228b22" style="fill: var(--color1, #228b22)" d="M86.542 32c-7.424 0-10.888-4.936-10.888-11.353v-12.341h4.289v12.341c0 4.607 2.475 7.24 6.599 7.24 4.454 0 6.599-2.6 6.599-7.24v-12.341h4.289v12.341c0 6.417-3.464 11.353-10.888 11.353z"></path>
<path fill="#228b22" style="fill: var(--color1, #228b22)" d="M101.052 31.342v-23.036h21.447v7.569c0 3.060-1.947 5.627-5.312 6.713l5.312 8.754h-4.949l-4.916-8.063-7.292 0.658v7.404h-4.289zM105.341 19.988l9.074-0.823c1.815-0.165 3.795-0.987 3.795-3.455v-3.455h-12.868v7.733z"></path>
<path fill="#228b22" style="fill: var(--color1, #228b22)" d="M126.121 31.342v-23.036h19.797v3.949h-15.507v3.784h11.713v3.949h-11.713v7.404h15.507v3.949h-19.797z"></path>
<path fill="#228b22" style="fill: var(--color1, #228b22)" d="M177.434 32c-8.248 0-12.703-5.924-12.703-12.176s4.454-12.176 12.703-12.176c8.249 0 12.703 5.924 12.703 12.176s-4.454 12.176-12.703 12.176zM177.434 28.051c4.949 0 8.414-3.62 8.414-8.227s-3.465-8.227-8.414-8.227c-4.949 0-8.413 3.62-8.413 8.227s3.465 8.227 8.413 8.227z"></path>
<path fill="#228b22" style="fill: var(--color1, #228b22)" d="M193.109 31.342v-23.036h19.137v3.949h-14.847v4.607h11.053v3.949h-11.053v10.531h-4.289z"></path>
<path fill="#228b22" style="fill: var(--color1, #228b22)" d="M237.869 31.342v-30.714h5.719v30.714h-5.719z"></path>
<path fill="#228b22" style="fill: var(--color1, #228b22)" d="M258.106 31.342v-25.449h-10.999v-5.265h27.716v5.265h-10.998v25.449h-5.719z"></path>
</symbol>

<symbol id="exit" viewBox="0 0 32 32">
<path d="M24 20v-4h-10v-4h10v-4l6 6zM22 18v8h-10v6l-12-6v-26h22v10h-2v-8h-16l8 4v18h8v-6z"></path>
</symbol>

    <symbol id="email" viewBox="0 0 32 32">
      <path d="M26.667 5.333h-21.333c-1.467 0-2.653 1.2-2.653 2.667l-0.013 16c0 1.467 1.2 2.667 2.667 2.667h21.333c1.467 0 2.667-1.2 2.667-2.667v-16c0-1.467-1.2-2.667-2.667-2.667zM26.667 10.667l-10.667 6.667-10.667-6.667v-2.667l10.667 6.667 10.667-6.667v2.667z"></path>
    </symbol>

   

    <symbol id="icon" viewBox="0 0 27 32">
   <path fill="#b3261e" style="fill: var(--color1, #b3261e)" d="M4.031 25.875l6.281-8.625-9.437-2.813 1.469-4.688 9.437 3.469-0.281-10.75h4.75l-0.313 10.938 9.313-3.469 1.438 4.781-9.594 2.844 6.156 8.469-3.875 2.906-5.781-9-5.656 8.781-3.906-2.844z"></path>
   </symbol>

<symbol id="eye-close" viewBox="0 0 32 32">
<path d="M19.599 14.153l0.981-0.981c1.253 0.723 2.087 1.721 2.087 2.828 0 2.209-3.305 3.995-6.667 4-0.684 0-1.366-0.072-2.035-0.213l1.165-1.164c0.284 0.029 0.575 0.045 0.869 0.044h0.001c-0.277 0-0.543-0.042-0.794-0.12l1.321-1.321c0.313-0.135 0.565-0.386 0.7-0.699l1.32-1.321c0.124 0.398 0.153 0.82 0.085 1.231s-0.232 0.801-0.478 1.138c-0.246 0.337-0.568 0.611-0.939 0.801s-0.782 0.29-1.199 0.292c2.83-0.010 5.319-1.456 5.319-2.667 0-0.629-0.681-1.324-1.735-1.847zM13.397 16.583c-0.087-0.39-0.086-0.794 0.004-1.183s0.266-0.753 0.515-1.065c0.249-0.312 0.566-0.564 0.925-0.737s0.754-0.264 1.153-0.264c-2.812-0.010-5.329 1.452-5.329 2.667 0 0.597 0.603 1.251 1.551 1.763l-0.972 0.971c-1.157-0.715-1.913-1.677-1.913-2.733 0-2.209 3.323-4.011 6.667-4 0.609 0.002 1.218 0.063 1.806 0.175l-1.185 1.184c-0.193-0.015-0.389-0.023-0.587-0.025 0.188 0.003 0.371 0.025 0.549 0.064l-3.186 3.186zM22.061 9.805c0.125 0.125 0.195 0.295 0.195 0.471s-0.070 0.346-0.195 0.471l-11.313 11.313c-0.061 0.064-0.135 0.115-0.216 0.15s-0.169 0.053-0.257 0.054c-0.089 0.001-0.176-0.016-0.258-0.049s-0.156-0.083-0.219-0.145c-0.063-0.063-0.112-0.137-0.146-0.219s-0.051-0.17-0.050-0.258c0.001-0.088 0.019-0.176 0.054-0.257s0.086-0.155 0.149-0.217l11.313-11.313c0.062-0.062 0.135-0.111 0.216-0.145s0.168-0.051 0.255-0.051c0.088 0 0.174 0.017 0.255 0.051s0.154 0.082 0.216 0.144z"></path>
</symbol>

<symbol id="eye" viewBox="0 0 32 32">
<path d="M22.4 16c0-1.448-3.008-3.188-6.406-3.2-3.374-0.012-6.394 1.742-6.394 3.2 0 1.46 3.003 3.205 6.398 3.2 3.404-0.005 6.402-1.744 6.402-3.2zM16 20.8c-4.034 0.006-8-2.149-8-4.8s3.987-4.814 8-4.8c4.013 0.014 8 2.149 8 4.8s-3.966 4.794-8 4.8zM16 19.2c-0.849 0-1.663-0.337-2.263-0.937s-0.937-1.414-0.937-2.263c0-0.849 0.337-1.663 0.937-2.263s1.414-0.937 2.263-0.937 1.663 0.337 2.263 0.937c0.6 0.6 0.937 1.414 0.937 2.263s-0.337 1.663-0.937 2.263c-0.6 0.6-1.414 0.937-2.263 0.937zM16 17.6c0.424 0 0.831-0.169 1.131-0.469s0.469-0.707 0.469-1.131c0-0.424-0.169-0.831-0.469-1.131s-0.707-0.469-1.131-0.469-0.831 0.169-1.131 0.469c-0.3 0.3-0.469 0.707-0.469 1.131s0.169 0.831 0.469 1.131 0.707 0.469 1.131 0.469z"></path>
</symbol>


<symbol id="checkbox" viewBox="0 0 42 32">
<path fill="none" stroke="#3c0" style="stroke: var(--color1, #3c0)" stroke-linejoin="round" stroke-linecap="round" stroke-miterlimit="4" stroke-width="4.2667" d="M3.202 19.199l9.6 9.6 25.6-25.6"></path>
</symbol>


<symbol id="google" viewBox="0 0 32 32">
<path fill="#ffc107" style="fill: var(--color1, #ffc107)" d="M29.074 13.389h-1.074v-0.055h-12v5.333h7.535c-1.099 3.105-4.053 5.333-7.535 5.333-4.418 0-8-3.582-8-8s3.582-8 8-8c2.039 0 3.895 0.769 5.307 2.026l3.771-3.771c-2.381-2.219-5.567-3.588-9.079-3.588-7.363 0-13.333 5.97-13.333 13.333s5.97 13.333 13.333 13.333c7.363 0 13.333-5.97 13.333-13.333 0-0.894-0.092-1.767-0.259-2.611z"></path>
<path fill="#000" style="fill: var(--color2, #000)" opacity="0.3" d="M29.074 13.389h-1.074v-0.055h-12v5.333h7.535c-1.099 3.105-4.053 5.333-7.535 5.333-4.418 0-8-3.582-8-8s3.582-8 8-8c2.039 0 3.895 0.769 5.307 2.026l3.771-3.771c-2.381-2.219-5.567-3.588-9.079-3.588-7.363 0-13.333 5.97-13.333 13.333s5.97 13.333 13.333 13.333c7.363 0 13.333-5.97 13.333-13.333 0-0.894-0.092-1.767-0.259-2.611z"></path>
<path fill="#fff" style="fill: var(--color3, #fff)" opacity="0.3" d="M29.074 13.389h-1.074v-0.055h-12v5.333h7.535c-1.099 3.105-4.053 5.333-7.535 5.333-4.418 0-8-3.582-8-8s3.582-8 8-8c2.039 0 3.895 0.769 5.307 2.026l3.771-3.771c-2.381-2.219-5.567-3.588-9.079-3.588-7.363 0-13.333 5.97-13.333 13.333s5.97 13.333 13.333 13.333c7.363 0 13.333-5.97 13.333-13.333 0-0.894-0.092-1.767-0.259-2.611z"></path>
<path fill="#ff3d00" style="fill: var(--color4, #ff3d00)" d="M4.204 9.794l4.381 3.213c1.185-2.935 4.056-5.007 7.415-5.007 2.039 0 3.895 0.769 5.307 2.026l3.771-3.771c-2.381-2.219-5.567-3.588-9.079-3.588-5.121 0-9.563 2.891-11.796 7.127z"></path>
<path fill="#000" style="fill: var(--color2, #000)" opacity="0.3" d="M4.204 9.794l4.381 3.213c1.185-2.935 4.056-5.007 7.415-5.007 2.039 0 3.895 0.769 5.307 2.026l3.771-3.771c-2.381-2.219-5.567-3.588-9.079-3.588-5.121 0-9.563 2.891-11.796 7.127z"></path>
<path fill="#fff" style="fill: var(--color3, #fff)" opacity="0.3" d="M4.204 9.794l4.381 3.213c1.185-2.935 4.056-5.007 7.415-5.007 2.039 0 3.895 0.769 5.307 2.026l3.771-3.771c-2.381-2.219-5.567-3.588-9.079-3.588-5.121 0-9.563 2.891-11.796 7.127z"></path>
<path fill="#4caf50" style="fill: var(--color5, #4caf50)" d="M16 29.333c3.444 0 6.573-1.318 8.939-3.461l-4.127-3.492c-1.384 1.052-3.074 1.621-4.813 1.62-3.468 0-6.413-2.211-7.522-5.297l-4.348 3.35c2.207 4.318 6.688 7.281 11.87 7.281z"></path>
<path fill="#000" style="fill: var(--color2, #000)" opacity="0.3" d="M16 29.333c3.444 0 6.573-1.318 8.939-3.461l-4.127-3.492c-1.384 1.052-3.074 1.621-4.813 1.62-3.468 0-6.413-2.211-7.522-5.297l-4.348 3.35c2.207 4.318 6.688 7.281 11.87 7.281z"></path>
<path fill="#fff" style="fill: var(--color3, #fff)" opacity="0.3" d="M16 29.333c3.444 0 6.573-1.318 8.939-3.461l-4.127-3.492c-1.384 1.052-3.074 1.621-4.813 1.62-3.468 0-6.413-2.211-7.522-5.297l-4.348 3.35c2.207 4.318 6.688 7.281 11.87 7.281z"></path>
<path fill="#1976d2" style="fill: var(--color6, #1976d2)" d="M29.074 13.389h-1.074v-0.055h-12v5.333h7.535c-0.526 1.478-1.473 2.769-2.725 3.714l0.002-0.001 4.127 3.492c-0.292 0.265 4.394-3.205 4.394-9.871 0-0.894-0.092-1.767-0.259-2.611z"></path>
<path fill="#000" style="fill: var(--color2, #000)" opacity="0.3" d="M29.074 13.389h-1.074v-0.055h-12v5.333h7.535c-0.526 1.478-1.473 2.769-2.725 3.714l0.002-0.001 4.127 3.492c-0.292 0.265 4.394-3.205 4.394-9.871 0-0.894-0.092-1.767-0.259-2.611z"></path>
<path fill="#fff" style="fill: var(--color3, #fff)" opacity="0.3" d="M29.074 13.389h-1.074v-0.055h-12v5.333h7.535c-0.526 1.478-1.473 2.769-2.725 3.714l0.002-0.001 4.127 3.492c-0.292 0.265 4.394-3.205 4.394-9.871 0-0.894-0.092-1.767-0.259-2.611z"></path>
</symbol>


<symbol id="linkedin" viewBox="0 0 32 32">
<path fill="#fff" style="fill: var(--color3, #fff)" d="M24.5 0h-17c-4.142 0-7.5 3.358-7.5 7.5v17c0 4.142 3.358 7.5 7.5 7.5h17c4.142 0 7.5-3.358 7.5-7.5v-17c0-4.142-3.358-7.5-7.5-7.5z"></path>
<path fill="#0a66c2" style="fill: var(--color7, #0a66c2)" d="M24.5 0h-17c-4.142 0-7.5 3.358-7.5 7.5v17c0 4.142 3.358 7.5 7.5 7.5h17c4.142 0 7.5-3.358 7.5-7.5v-17c0-4.142-3.358-7.5-7.5-7.5z"></path>
<path fill="#000" style="fill: var(--color2, #000)" opacity="0.3" d="M24.5 0h-17c-4.142 0-7.5 3.358-7.5 7.5v17c0 4.142 3.358 7.5 7.5 7.5h17c4.142 0 7.5-3.358 7.5-7.5v-17c0-4.142-3.358-7.5-7.5-7.5z"></path>
<path fill="#fff" style="fill: var(--color3, #fff)" opacity="0.3" d="M24.5 0h-17c-4.142 0-7.5 3.358-7.5 7.5v17c0 4.142 3.358 7.5 7.5 7.5h17c4.142 0 7.5-3.358 7.5-7.5v-17c0-4.142-3.358-7.5-7.5-7.5z"></path>
<path fill="#fff" style="fill: var(--color3, #fff)" d="M23.089 27.211h3.659c0.133 0 0.26-0.053 0.354-0.146s0.146-0.221 0.146-0.353l0.002-7.73c0-4.040-0.871-7.146-5.592-7.146-1.795-0.067-3.488 0.858-4.401 2.404-0.004 0.008-0.011 0.013-0.019 0.017s-0.017 0.004-0.025 0.002c-0.008-0.002-0.016-0.007-0.021-0.014s-0.008-0.015-0.008-0.024v-1.51c0-0.133-0.053-0.26-0.146-0.354s-0.221-0.146-0.354-0.146h-3.472c-0.133 0-0.26 0.053-0.354 0.146s-0.146 0.221-0.146 0.354v14.003c0 0.133 0.053 0.26 0.146 0.354s0.221 0.146 0.354 0.146h3.659c0.133 0 0.26-0.053 0.354-0.146s0.146-0.221 0.146-0.354v-6.922c0-1.957 0.371-3.852 2.798-3.852 2.392 0 2.423 2.239 2.423 3.979v6.796c0 0.133 0.053 0.26 0.146 0.354s0.221 0.146 0.354 0.146zM4.75 7.454c0 1.483 1.221 2.703 2.704 2.703s2.703-1.221 2.703-2.704c-0-1.483-1.22-2.703-2.703-2.703s-2.704 1.22-2.704 2.704zM5.62 27.211h3.663c0.133 0 0.26-0.053 0.354-0.146s0.146-0.221 0.146-0.354v-14.003c0-0.133-0.053-0.26-0.146-0.354s-0.221-0.146-0.354-0.146h-3.663c-0.133 0-0.26 0.053-0.354 0.146s-0.146 0.221-0.146 0.354v14.003c0 0.133 0.053 0.26 0.146 0.354s0.221 0.146 0.354 0.146z"></path>
</symbol>

<symbol id="profile-menu" viewBox="0 0 32 32">
<path d="M16 5.333c1.415 0 2.771 0.562 3.771 1.562s1.562 2.357 1.562 3.771-0.562 2.771-1.562 3.771c-1 1-2.357 1.562-3.771 1.562s-2.771-0.562-3.771-1.562c-1-1-1.562-2.357-1.562-3.771s0.562-2.771 1.562-3.771c1-1 2.357-1.562 3.771-1.562zM16 8c-0.707 0-1.385 0.281-1.886 0.781s-0.781 1.178-0.781 1.886c0 0.707 0.281 1.386 0.781 1.886s1.178 0.781 1.886 0.781c0.707 0 1.385-0.281 1.886-0.781s0.781-1.178 0.781-1.886c0-0.707-0.281-1.386-0.781-1.886s-1.178-0.781-1.886-0.781zM16 17.333c3.56 0 10.667 1.773 10.667 5.333v4h-21.333v-4c0-3.56 7.107-5.333 10.667-5.333zM16 19.867c-3.96 0-8.133 1.947-8.133 2.8v1.467h16.267v-1.467c0-0.853-4.173-2.8-8.133-2.8z"></path>
</symbol>

<symbol id="desktop-menu" viewBox="0 0 32 32">
<path d="M12 17.333h8v8h4v-12l-8-6-8 6v12h4v-8zM5.333 28v-16l10.667-8 10.667 8v16h-21.333z"></path>
</symbol>

<symbol id="wishList-menu" viewBox="0 0 32 32">
<path d="M14.667 20h8v2.667h-8v-2.667zM12 9.333h-2.667v2.667h2.667v-2.667zM14.667 17.333h8v-2.667h-8v2.667zM14.667 12h8v-2.667h-8v2.667zM12 14.667h-2.667v2.667h2.667v-2.667zM28 6.667v18.667c0 1.467-1.2 2.667-2.667 2.667h-18.667c-1.467 0-2.667-1.2-2.667-2.667v-18.667c0-1.467 1.2-2.667 2.667-2.667h18.667c1.467 0 2.667 1.2 2.667 2.667zM25.333 6.667h-18.667v18.667h18.667v-18.667zM12 20h-2.667v2.667h2.667v-2.667z"></path>
</symbol>

<symbol id="partner-menu" viewBox="0 0 32 32">
<path d="M28.947 11.613c1.667-1.667 0.907-3.613 0-4.56l-4-4c-1.68-1.667-3.613-0.907-4.56 0l-2.267 2.28h-3.453c-2.533 0-4 1.333-4.747 2.867l-5.92 5.92v5.333l-0.947 0.933c-1.667 1.68-0.907 3.613 0 4.56l4 4c0.72 0.72 1.493 0.987 2.227 0.987 0.947 0 1.813-0.467 2.333-0.987l3.6-3.613h4.787c2.267 0 3.413-1.413 3.827-2.8 1.507-0.4 2.333-1.547 2.667-2.667 2.067-0.533 2.84-2.493 2.84-3.867v-4h-0.787l0.4-0.387zM26.667 16c0 0.6-0.253 1.333-1.333 1.333h-1.333v1.333c0 0.6-0.253 1.333-1.333 1.333h-1.333v1.333c0 0.6-0.253 1.333-1.333 1.333h-5.88l-4.373 4.373c-0.413 0.387-0.653 0.16-0.8 0.013l-3.987-3.973c-0.387-0.413-0.16-0.653-0.013-0.8l1.72-1.733v-5.333l2.667-2.667v2.12c0 1.613 1.067 4 4 4s4-2.387 4-4h9.333v1.333zM27.053 9.72l-2.267 2.28h-10.12v2.667c0 0.6-0.253 1.333-1.333 1.333s-1.333-0.733-1.333-1.333v-4c0-0.613 0.227-2.667 2.667-2.667h4.547l3.040-3.040c0.413-0.387 0.653-0.16 0.8-0.013l3.987 3.973c0.387 0.413 0.16 0.653 0.013 0.8z"></path>
</symbol>

<symbol id="special-proposal-menu" viewBox="0 0 32 32">
<path d="M14.373 16.067l4.040-0.347 1.587-3.72 1.587 3.72 4.040 0.347-3.067 2.653 0.92 3.947-3.48-2.040-3.48 2.040 0.92-3.947-3.067-2.653zM29.333 10.667v13.333c0 1.48-1.187 2.667-2.667 2.667h-21.333c-0.707 0-1.386-0.281-1.886-0.781s-0.781-1.178-0.781-1.886v-16c0-0.707 0.281-1.386 0.781-1.886s1.178-0.781 1.886-0.781h8l2.667 2.667h10.667c0.707 0 1.385 0.281 1.886 0.781s0.781 1.178 0.781 1.886zM26.667 10.667h-21.333v13.333h21.333v-13.333z"></path>
</symbol>

<symbol id="finance-menu" viewBox="0 0 32 32">
<path d="M9.333 20h2.667c0 1.44 1.827 2.667 4 2.667s4-1.227 4-2.667c0-1.467-1.387-2-4.32-2.707-2.827-0.707-6.347-1.587-6.347-5.293 0-2.387 1.96-4.413 4.667-5.093v-2.907h4v2.907c2.707 0.68 4.667 2.707 4.667 5.093h-2.667c0-1.44-1.827-2.667-4-2.667s-4 1.227-4 2.667c0 1.467 1.387 2 4.32 2.707 2.827 0.707 6.347 1.587 6.347 5.293 0 2.387-1.96 4.413-4.667 5.093v2.907h-4v-2.907c-2.707-0.68-4.667-2.707-4.667-5.093z"></path>
</symbol>

<symbol id="support-menu" viewBox="0 0 32 32">
<path d="M14.667 24h2.667v-2.667h-2.667v2.667zM16 2.667c-1.751 0-3.485 0.345-5.102 1.015s-3.088 1.652-4.326 2.89c-2.5 2.501-3.905 5.892-3.905 9.428s1.405 6.928 3.905 9.428c1.238 1.238 2.708 2.22 4.326 2.89s3.351 1.015 5.102 1.015c3.536 0 6.928-1.405 9.428-3.905s3.905-5.892 3.905-9.428c0-1.751-0.345-3.485-1.015-5.102s-1.652-3.088-2.89-4.326-2.708-2.22-4.326-2.89c-1.618-0.67-3.351-1.015-5.102-1.015zM16 26.667c-5.88 0-10.667-4.787-10.667-10.667s4.787-10.667 10.667-10.667c5.88 0 10.667 4.787 10.667 10.667s-4.787 10.667-10.667 10.667zM16 8c-1.415 0-2.771 0.562-3.771 1.562s-1.562 2.357-1.562 3.771h2.667c0-0.707 0.281-1.386 0.781-1.886s1.178-0.781 1.886-0.781c0.707 0 1.385 0.281 1.886 0.781s0.781 1.178 0.781 1.886c0 2.667-4 2.333-4 6.667h2.667c0-3 4-3.333 4-6.667 0-1.415-0.562-2.771-1.562-3.771s-2.357-1.562-3.771-1.562z"></path>
</symbol>


<symbol id="options-menu" viewBox="0 0 32 32">
<path d="M16 10.667c1.415 0 2.771 0.562 3.771 1.562s1.562 2.357 1.562 3.771-0.562 2.771-1.562 3.771c-1 1-2.357 1.562-3.771 1.562s-2.771-0.562-3.771-1.562c-1-1-1.562-2.357-1.562-3.771s0.562-2.771 1.562-3.771c1-1 2.357-1.562 3.771-1.562zM16 13.333c-0.707 0-1.385 0.281-1.886 0.781s-0.781 1.178-0.781 1.886c0 0.707 0.281 1.385 0.781 1.886s1.178 0.781 1.886 0.781c0.707 0 1.386-0.281 1.886-0.781s0.781-1.178 0.781-1.886-0.281-1.385-0.781-1.886c-0.5-0.5-1.178-0.781-1.886-0.781zM13.333 29.333c-0.333 0-0.613-0.24-0.667-0.56l-0.493-3.533c-0.84-0.333-1.56-0.787-2.253-1.32l-3.32 1.347c-0.293 0.107-0.653 0-0.813-0.293l-2.667-4.613c-0.082-0.137-0.11-0.3-0.081-0.457s0.115-0.298 0.241-0.397l2.813-2.213-0.093-1.293 0.093-1.333-2.813-2.173c-0.126-0.098-0.211-0.239-0.241-0.396s-0.001-0.319 0.081-0.457l2.667-4.613c0.16-0.293 0.52-0.413 0.813-0.293l3.32 1.333c0.693-0.52 1.413-0.973 2.253-1.307l0.493-3.533c0.053-0.32 0.333-0.56 0.667-0.56h5.333c0.333 0 0.613 0.24 0.667 0.56l0.493 3.533c0.84 0.333 1.56 0.787 2.253 1.307l3.32-1.333c0.293-0.12 0.653 0 0.813 0.293l2.667 4.613c0.173 0.293 0.093 0.653-0.16 0.853l-2.813 2.173 0.093 1.333-0.093 1.333 2.813 2.173c0.253 0.2 0.333 0.56 0.16 0.853l-2.667 4.613c-0.16 0.293-0.52 0.413-0.813 0.293l-3.32-1.333c-0.693 0.52-1.413 0.973-2.253 1.307l-0.493 3.533c-0.053 0.32-0.333 0.56-0.667 0.56h-5.333zM15 5.333l-0.493 3.48c-1.6 0.333-3.013 1.187-4.040 2.373l-3.213-1.387-1 1.733 2.813 2.067c-0.533 1.556-0.533 3.244 0 4.8l-2.827 2.080 1 1.733 3.24-1.387c1.027 1.173 2.427 2.027 4.013 2.347l0.493 3.493h2.027l0.493-3.48c1.587-0.333 2.987-1.187 4.013-2.36l3.24 1.387 1-1.733-2.827-2.067c0.533-1.56 0.533-3.253 0-4.813l2.813-2.067-1-1.733-3.213 1.387c-1.048-1.213-2.469-2.043-4.040-2.36l-0.493-3.493h-2z"></path>
</symbol>

<symbol id="logout-menu" viewBox="0 0 32 32">
<path d="M25.333 4h-18.667c-1.48 0-2.667 1.187-2.667 2.667v5.333h2.667v-5.333h18.667v18.667h-18.667v-5.333h-2.667v5.333c0 0.707 0.281 1.385 0.781 1.886s1.178 0.781 1.886 0.781h18.667c0.707 0 1.385-0.281 1.886-0.781s0.781-1.178 0.781-1.886v-18.667c0-0.707-0.281-1.386-0.781-1.886s-1.178-0.781-1.886-0.781zM13.44 20.773l1.893 1.893 6.667-6.667-6.667-6.667-1.893 1.88 3.453 3.453h-12.893v2.667h12.893l-3.453 3.44z"></path>
</symbol>


  </defs>
</svg>